<svg xmlns="http://www.w3.org/2000/svg" viewBox="0 0 960 600" preserveAspectRatio="xMidYMid slice" shape-rendering="crispEdges"><defs>
 <radialGradient id="sun" cx="0.5" cy="0.5" r="0.5">
  <stop offset="0" stop-color="#ffe79a"></stop><stop offset="0.55" stop-color="#ffc24d"></stop><stop offset="1" stop-color="#ff8a2e"></stop>
 </radialGradient>
 <radialGradient id="sunhaze" cx="0.5" cy="0.5" r="0.5">
  <stop offset="0" stop-color="#ffb04d" stop-opacity="0.55"></stop><stop offset="1" stop-color="#ffb04d" stop-opacity="0"></stop>
 </radialGradient>
 <linearGradient id="grass" x1="0" y1="0" x2="0" y2="1">
  <stop offset="0" stop-color="#2c9a3e"></stop><stop offset="1" stop-color="#1c6f2c"></stop>
 </linearGradient>
 <radialGradient id="pitchglow" cx="0.5" cy="0.1" r="0.9">
  <stop offset="0" stop-color="#ff9a4d" stop-opacity="0.30"></stop><stop offset="1" stop-color="#ff9a4d" stop-opacity="0"></stop>
 </radialGradient>
 <radialGradient id="vig" cx="0.5" cy="0.46" r="0.75">
  <stop offset="0.55" stop-color="#000" stop-opacity="0"></stop><stop offset="1" stop-color="#1a0420" stop-opacity="0.55"></stop>
 </radialGradient>
 <clipPath id="field"><polygon points="300,322 660,322 872,556 88,556"></polygon></clipPath>
 <clipPath id="skyclip"><rect x="0" y="0" width="960" height="360"></rect></clipPath>
</defs><rect x="0" y="0" width="960" height="26" fill="#48136f"></rect><rect x="0" y="25" width="960" height="26" fill="#5a168a"></rect><rect x="0" y="50" width="960" height="26" fill="#6d1897"></rect><rect x="0" y="75" width="960" height="26" fill="#841b92"></rect><rect x="0" y="100" width="960" height="26" fill="#9d1f84"></rect><rect x="0" y="125" width="960" height="26" fill="#b62475"></rect><rect x="0" y="150" width="960" height="26" fill="#cc2a66"></rect><rect x="0" y="175" width="960" height="26" fill="#dd2f59"></rect><rect x="0" y="200" width="960" height="26" fill="#ec3a49"></rect><rect x="0" y="225" width="960" height="26" fill="#f64f37"></rect><rect x="0" y="250" width="960" height="26" fill="#ff662e"></rect><rect x="0" y="275" width="960" height="26" fill="#ff7d36"></rect><g clip-path="url(#skyclip)"><ellipse cx="480" cy="300" rx="190" ry="190" fill="url(#sunhaze)"></ellipse><circle cx="480" cy="300" r="120" fill="url(#sun)"></circle><rect x="360" y="290" width="240" height="5" fill="#e63154" fill-opacity="0.9"></rect><rect x="360" y="306" width="240" height="6" fill="#e63154" fill-opacity="0.9"></rect><rect x="360" y="322" width="240" height="7" fill="#e63154" fill-opacity="0.9"></rect><rect x="360" y="338" width="240" height="8" fill="#e63154" fill-opacity="0.9"></rect><rect x="360" y="354" width="240" height="9" fill="#e63154" fill-opacity="0.9"></rect><rect x="360" y="370" width="240" height="10" fill="#e63154" fill-opacity="0.9"></rect></g><rect x="746" y="150" width="48" height="6" fill="#ff9aa8"></rect><rect x="734" y="156" width="72" height="6" fill="#ff6f86"></rect><rect x="728" y="162" width="90" height="6" fill="#ff6f86"></rect><rect x="740" y="168" width="66" height="6" fill="#ff6f86"></rect><rect x="740" y="174" width="66" height="6" fill="#d64f74"></rect><rect x="684" y="185" width="32" height="4" fill="#ff8a9c"></rect><rect x="676" y="189" width="48" height="4" fill="#f25f7a"></rect><rect x="672" y="193" width="60" height="4" fill="#f25f7a"></rect><rect x="680" y="197" width="44" height="4" fill="#f25f7a"></rect><rect x="680" y="201" width="44" height="4" fill="#c64668"></rect><rect x="130" y="120" width="40" height="5" fill="#ffa6b2"></rect><rect x="120" y="125" width="60" height="5" fill="#ff7f90"></rect><rect x="115" y="130" width="75" height="5" fill="#ff7f90"></rect><rect x="125" y="135" width="55" height="5" fill="#ff7f90"></rect><rect x="125" y="140" width="55" height="5" fill="#d65a78"></rect><rect x="238" y="165" width="24" height="3" fill="#ff8fa0"></rect><rect x="232" y="168" width="36" height="3" fill="#ee5e78"></rect><rect x="229" y="171" width="45" height="3" fill="#ee5e78"></rect><rect x="235" y="174" width="33" height="3" fill="#ee5e78"></rect><rect x="235" y="177" width="33" height="3" fill="#c44a66"></rect><g><ellipse cx="480" cy="372" rx="540" ry="120" fill="#241432"></ellipse><ellipse cx="480" cy="360" rx="470" ry="100" fill="#2e1a40"></ellipse><path d="M120 300 Q480 150 840 300" fill="none" stroke="#3a2358" stroke-width="10"></path><path d="M170 300 Q480 185 790 300" fill="none" stroke="#34506e" stroke-width="5" stroke-opacity="0.7"></path><path d="M240 300 Q480 215 720 300" fill="none" stroke="#2f6f8f" stroke-width="3" stroke-opacity="0.55"></path><line x1="170" y1="300" x2="170" y2="300" stroke="#34506e" stroke-width="2" stroke-opacity="0.45"></line><line x1="247.5" y1="300" x2="248" y2="262" stroke="#34506e" stroke-width="2" stroke-opacity="0.45"></line><line x1="325" y1="300" x2="325" y2="229" stroke="#34506e" stroke-width="2" stroke-opacity="0.45"></line><line x1="402.5" y1="300" x2="403" y2="208" stroke="#34506e" stroke-width="2" stroke-opacity="0.45"></line><line x1="480" y1="300" x2="480" y2="200" stroke="#34506e" stroke-width="2" stroke-opacity="0.45"></line><line x1="557.5" y1="300" x2="558" y2="208" stroke="#34506e" stroke-width="2" stroke-opacity="0.45"></line><line x1="635" y1="300" x2="635" y2="229" stroke="#34506e" stroke-width="2" stroke-opacity="0.45"></line><line x1="712.5" y1="300" x2="713" y2="262" stroke="#34506e" stroke-width="2" stroke-opacity="0.45"></line><line x1="790" y1="300" x2="790" y2="300" stroke="#34506e" stroke-width="2" stroke-opacity="0.45"></line><rect x="219" y="312" width="2" height="2" fill="#ff8a3d" fill-opacity="0.5"></rect><rect x="775" y="313" width="2" height="2" fill="#25d8d8" fill-opacity="0.5"></rect><rect x="785" y="344" width="2" height="2" fill="#f0e0d0" fill-opacity="0.5"></rect><rect x="259" y="305" width="2" height="2" fill="#ff6a6a" fill-opacity="0.5"></rect><rect x="147" y="315" width="2" height="2" fill="#9a7ad6" fill-opacity="0.5"></rect><rect x="783" y="357" width="2" height="2" fill="#9a7ad6" fill-opacity="0.5"></rect><rect x="559" y="304" width="2" height="2" fill="#ff8a3d" fill-opacity="0.5"></rect><rect x="485" y="302" width="2" height="2" fill="#ff6a6a" fill-opacity="0.5"></rect><rect x="219" y="315" width="2" height="2" fill="#9a7ad6" fill-opacity="0.5"></rect><rect x="872" y="330" width="2" height="2" fill="#ff8a3d" fill-opacity="0.5"></rect><rect x="761" y="318" width="2" height="2" fill="#25d8d8" fill-opacity="0.5"></rect><rect x="267" y="310" width="2" height="2" fill="#f0e0d0" fill-opacity="0.5"></rect><rect x="237" y="328" width="2" height="2" fill="#9a7ad6" fill-opacity="0.5"></rect><rect x="783" y="315" width="2" height="2" fill="#ff8a3d" fill-opacity="0.5"></rect><rect x="711" y="311" width="2" height="2" fill="#25d8d8" fill-opacity="0.5"></rect><rect x="232" y="314" width="2" height="2" fill="#f0e0d0" fill-opacity="0.5"></rect><rect x="171" y="315" width="2" height="2" fill="#ff6a6a" fill-opacity="0.5"></rect><rect x="161" y="321" width="2" height="2" fill="#9a7ad6" fill-opacity="0.5"></rect><rect x="766" y="306" width="2" height="2" fill="#ff8a3d" fill-opacity="0.5"></rect><rect x="194" y="320" width="2" height="2" fill="#25d8d8" fill-opacity="0.5"></rect><rect x="511" y="309" width="2" height="2" fill="#f0e0d0" fill-opacity="0.5"></rect><rect x="710" y="313" width="2" height="2" fill="#ff6a6a" fill-opacity="0.5"></rect><rect x="117" y="341" width="2" height="2" fill="#25d8d8" fill-opacity="0.5"></rect><rect x="162" y="329" width="2" height="2" fill="#f0e0d0" fill-opacity="0.5"></rect><rect x="146" y="330" width="2" height="2" fill="#ff6a6a" fill-opacity="0.5"></rect><rect x="128" y="320" width="2" height="2" fill="#25d8d8" fill-opacity="0.5"></rect><rect x="248" y="324" width="2" height="2" fill="#f0e0d0" fill-opacity="0.5"></rect><rect x="859" y="326" width="2" height="2" fill="#ff6a6a" fill-opacity="0.5"></rect><rect x="122" y="332" width="2" height="2" fill="#9a7ad6" fill-opacity="0.5"></rect><rect x="70" y="348" width="2" height="2" fill="#ff8a3d" fill-opacity="0.5"></rect><rect x="839" y="329" width="2" height="2" fill="#25d8d8" fill-opacity="0.5"></rect><rect x="132" y="324" width="2" height="2" fill="#f0e0d0" fill-opacity="0.5"></rect><rect x="837" y="342" width="2" height="2" fill="#f0e0d0" fill-opacity="0.5"></rect><rect x="276" y="309" width="2" height="2" fill="#ff6a6a" fill-opacity="0.5"></rect><rect x="474" y="307" width="2" height="2" fill="#9a7ad6" fill-opacity="0.5"></rect><rect x="782" y="317" width="2" height="2" fill="#ff8a3d" fill-opacity="0.5"></rect><rect x="706" y="313" width="2" height="2" fill="#25d8d8" fill-opacity="0.5"></rect><rect x="333" y="310" width="2" height="2" fill="#f0e0d0" fill-opacity="0.5"></rect><rect x="88" y="328" width="2" height="2" fill="#ff6a6a" fill-opacity="0.5"></rect><rect x="177" y="323" width="2" height="2" fill="#ff8a3d" fill-opacity="0.5"></rect><rect x="914" y="352" width="2" height="2" fill="#f0e0d0" fill-opacity="0.5"></rect><rect x="209" y="334" width="2" height="2" fill="#ff8a3d" fill-opacity="0.5"></rect><rect x="817" y="352" width="2" height="2" fill="#25d8d8" fill-opacity="0.5"></rect><rect x="786" y="316" width="2" height="2" fill="#9a7ad6" fill-opacity="0.5"></rect><rect x="159" y="342" width="2" height="2" fill="#ff6a6a" fill-opacity="0.5"></rect><rect x="787" y="318" width="2" height="2" fill="#9a7ad6" fill-opacity="0.5"></rect><rect x="191" y="334" width="2" height="2" fill="#ff8a3d" fill-opacity="0.5"></rect><rect x="215" y="313" width="2" height="2" fill="#25d8d8" fill-opacity="0.5"></rect><rect x="646" y="307" width="2" height="2" fill="#f0e0d0" fill-opacity="0.5"></rect><rect x="357" y="304" width="2" height="2" fill="#ff6a6a" fill-opacity="0.5"></rect><rect x="139" y="352" width="2" height="2" fill="#9a7ad6" fill-opacity="0.5"></rect><rect x="614" y="305" width="2" height="2" fill="#f0e0d0" fill-opacity="0.5"></rect><rect x="425" y="301" width="2" height="2" fill="#ff6a6a" fill-opacity="0.5"></rect><rect x="846" y="328" width="2" height="2" fill="#f0e0d0" fill-opacity="0.5"></rect><rect x="718" y="321" width="2" height="2" fill="#ff6a6a" fill-opacity="0.5"></rect><rect x="816" y="316" width="2" height="2" fill="#9a7ad6" fill-opacity="0.5"></rect><rect x="878" y="358" width="2" height="2" fill="#ff8a3d" fill-opacity="0.5"></rect><rect x="736" y="326" width="2" height="2" fill="#f0e0d0" fill-opacity="0.5"></rect><rect x="240" y="312" width="2" height="2" fill="#9a7ad6" fill-opacity="0.5"></rect><rect x="751" y="329" width="2" height="2" fill="#ff8a3d" fill-opacity="0.5"></rect><rect x="677" y="316" width="2" height="2" fill="#25d8d8" fill-opacity="0.5"></rect><rect x="784" y="325" width="2" height="2" fill="#9a7ad6" fill-opacity="0.5"></rect><rect x="36" y="346" width="2" height="2" fill="#ff8a3d" fill-opacity="0.5"></rect><rect x="147" y="306" width="2" height="2" fill="#25d8d8" fill-opacity="0.5"></rect><rect x="805" y="321" width="2" height="2" fill="#ff6a6a" fill-opacity="0.5"></rect><rect x="149" y="341" width="2" height="2" fill="#9a7ad6" fill-opacity="0.5"></rect><rect x="190" y="329" width="2" height="2" fill="#25d8d8" fill-opacity="0.5"></rect><rect x="707" y="311" width="2" height="2" fill="#ff6a6a" fill-opacity="0.5"></rect><rect x="127" y="313" width="2" height="2" fill="#25d8d8" fill-opacity="0.5"></rect><rect x="393" y="301" width="2" height="2" fill="#f0e0d0" fill-opacity="0.5"></rect><rect x="53" y="323" width="2" height="2" fill="#9a7ad6" fill-opacity="0.5"></rect><rect x="152" y="322" width="2" height="2" fill="#ff8a3d" fill-opacity="0.5"></rect><rect x="930" y="339" width="2" height="2" fill="#ff6a6a" fill-opacity="0.5"></rect><rect x="948" y="345" width="2" height="2" fill="#9a7ad6" fill-opacity="0.5"></rect><rect x="898" y="336" width="2" height="2" fill="#ff8a3d" fill-opacity="0.5"></rect><rect x="209" y="315" width="2" height="2" fill="#9a7ad6" fill-opacity="0.5"></rect><rect x="152" y="334" width="2" height="2" fill="#ff8a3d" fill-opacity="0.5"></rect><rect x="696" y="301" width="2" height="2" fill="#25d8d8" fill-opacity="0.5"></rect><rect x="214" y="336" width="2" height="2" fill="#f0e0d0" fill-opacity="0.5"></rect><rect x="75" y="351" width="2" height="2" fill="#ff6a6a" fill-opacity="0.5"></rect><rect x="54" y="337" width="2" height="2" fill="#9a7ad6" fill-opacity="0.5"></rect><rect x="841" y="336" width="2" height="2" fill="#ff8a3d" fill-opacity="0.5"></rect><rect x="178" y="340" width="2" height="2" fill="#25d8d8" fill-opacity="0.5"></rect><rect x="369" y="310" width="2" height="2" fill="#ff6a6a" fill-opacity="0.5"></rect><rect x="423" y="304" width="2" height="2" fill="#9a7ad6" fill-opacity="0.5"></rect><rect x="807" y="322" width="2" height="2" fill="#25d8d8" fill-opacity="0.5"></rect><rect x="441" y="300" width="2" height="2" fill="#f0e0d0" fill-opacity="0.5"></rect><rect x="760" y="319" width="2" height="2" fill="#ff6a6a" fill-opacity="0.5"></rect><rect x="799" y="342" width="2" height="2" fill="#9a7ad6" fill-opacity="0.5"></rect><rect x="582" y="301" width="2" height="2" fill="#ff8a3d" fill-opacity="0.5"></rect><rect x="910" y="354" width="2" height="2" fill="#f0e0d0" fill-opacity="0.5"></rect><rect x="852" y="328" width="2" height="2" fill="#ff6a6a" fill-opacity="0.5"></rect><rect x="666" y="307" width="2" height="2" fill="#f0e0d0" fill-opacity="0.5"></rect><rect x="867" y="319" width="2" height="2" fill="#ff6a6a" fill-opacity="0.5"></rect><rect x="131" y="303" width="2" height="2" fill="#9a7ad6" fill-opacity="0.5"></rect><rect x="117" y="328" width="2" height="2" fill="#ff8a3d" fill-opacity="0.5"></rect><rect x="716" y="312" width="2" height="2" fill="#f0e0d0" fill-opacity="0.5"></rect><rect x="498" y="305" width="2" height="2" fill="#ff6a6a" fill-opacity="0.5"></rect><rect x="167" y="328" width="2" height="2" fill="#9a7ad6" fill-opacity="0.5"></rect><rect x="728" y="303" width="2" height="2" fill="#ff8a3d" fill-opacity="0.5"></rect><rect x="513" y="308" width="2" height="2" fill="#25d8d8" fill-opacity="0.5"></rect><rect x="852" y="332" width="2" height="2" fill="#ff6a6a" fill-opacity="0.5"></rect><rect x="797" y="323" width="2" height="2" fill="#9a7ad6" fill-opacity="0.5"></rect><rect x="866" y="324" width="2" height="2" fill="#f0e0d0" fill-opacity="0.5"></rect><rect x="164" y="303" width="2" height="2" fill="#ff6a6a" fill-opacity="0.5"></rect><rect x="768" y="314" width="2" height="2" fill="#9a7ad6" fill-opacity="0.5"></rect><rect x="891" y="318" width="2" height="2" fill="#ff8a3d" fill-opacity="0.5"></rect><rect x="459" y="305" width="2" height="2" fill="#f0e0d0" fill-opacity="0.5"></rect><rect x="803" y="347" width="2" height="2" fill="#ff6a6a" fill-opacity="0.5"></rect><rect x="609" y="312" width="2" height="2" fill="#ff8a3d" fill-opacity="0.5"></rect><rect x="867" y="344" width="2" height="2" fill="#25d8d8" fill-opacity="0.5"></rect><rect x="882" y="345" width="2" height="2" fill="#ff6a6a" fill-opacity="0.5"></rect><rect x="898" y="332" width="2" height="2" fill="#9a7ad6" fill-opacity="0.5"></rect><rect x="411" y="300" width="2" height="2" fill="#ff8a3d" fill-opacity="0.5"></rect><rect x="216" y="313" width="2" height="2" fill="#ff6a6a" fill-opacity="0.5"></rect><rect x="184" y="319" width="2" height="2" fill="#25d8d8" fill-opacity="0.5"></rect><rect x="146" y="307" width="2" height="2" fill="#ff6a6a" fill-opacity="0.5"></rect><rect x="792" y="359" width="2" height="2" fill="#9a7ad6" fill-opacity="0.5"></rect><rect x="754" y="316" width="2" height="2" fill="#ff8a3d" fill-opacity="0.5"></rect><rect x="585" y="307" width="2" height="2" fill="#25d8d8" fill-opacity="0.5"></rect><rect x="92" y="322" width="2" height="2" fill="#f0e0d0" fill-opacity="0.5"></rect><rect x="95" y="339" width="2" height="2" fill="#9a7ad6" fill-opacity="0.5"></rect><rect x="147" y="324" width="2" height="2" fill="#ff8a3d" fill-opacity="0.5"></rect><rect x="159" y="345" width="2" height="2" fill="#25d8d8" fill-opacity="0.5"></rect><rect x="65" y="330" width="2" height="2" fill="#f0e0d0" fill-opacity="0.5"></rect><rect x="560" y="308" width="2" height="2" fill="#ff6a6a" fill-opacity="0.5"></rect><rect x="883" y="358" width="2" height="2" fill="#9a7ad6" fill-opacity="0.5"></rect><rect x="162" y="325" width="2" height="2" fill="#ff8a3d" fill-opacity="0.5"></rect><rect x="821" y="318" width="2" height="2" fill="#25d8d8" fill-opacity="0.5"></rect><rect x="777" y="352" width="2" height="2" fill="#f0e0d0" fill-opacity="0.5"></rect><rect x="810" y="332" width="2" height="2" fill="#ff6a6a" fill-opacity="0.5"></rect><rect x="900" y="331" width="2" height="2" fill="#9a7ad6" fill-opacity="0.5"></rect><rect x="219" y="325" width="2" height="2" fill="#ff8a3d" fill-opacity="0.5"></rect><rect x="854" y="354" width="2" height="2" fill="#25d8d8" fill-opacity="0.5"></rect><rect x="200" y="315" width="2" height="2" fill="#f0e0d0" fill-opacity="0.5"></rect><rect x="454" y="307" width="2" height="2" fill="#9a7ad6" fill-opacity="0.5"></rect><rect x="145" y="350" width="2" height="2" fill="#f0e0d0" fill-opacity="0.5"></rect><rect x="149" y="351" width="2" height="2" fill="#ff6a6a" fill-opacity="0.5"></rect><rect x="896" y="355" width="2" height="2" fill="#9a7ad6" fill-opacity="0.5"></rect><rect x="141" y="332" width="2" height="2" fill="#ff8a3d" fill-opacity="0.5"></rect><rect x="945" y="355" width="2" height="2" fill="#25d8d8" fill-opacity="0.5"></rect><rect x="553" y="301" width="2" height="2" fill="#f0e0d0" fill-opacity="0.5"></rect><rect x="205" y="324" width="2" height="2" fill="#ff6a6a" fill-opacity="0.5"></rect><rect x="743" y="318" width="2" height="2" fill="#9a7ad6" fill-opacity="0.5"></rect><rect x="881" y="329" width="2" height="2" fill="#ff8a3d" fill-opacity="0.5"></rect><rect x="132" y="355" width="2" height="2" fill="#25d8d8" fill-opacity="0.5"></rect><rect x="343" y="300" width="2" height="2" fill="#ff6a6a" fill-opacity="0.5"></rect><rect x="178" y="334" width="2" height="2" fill="#9a7ad6" fill-opacity="0.5"></rect><rect x="850" y="342" width="2" height="2" fill="#25d8d8" fill-opacity="0.5"></rect><rect x="150" y="301" width="2" height="2" fill="#f0e0d0" fill-opacity="0.5"></rect><rect x="59" y="354" width="2" height="2" fill="#ff6a6a" fill-opacity="0.5"></rect><rect x="959" y="357" width="2" height="2" fill="#9a7ad6" fill-opacity="0.5"></rect><rect x="595" y="309" width="2" height="2" fill="#ff8a3d" fill-opacity="0.5"></rect><rect x="127" y="346" width="2" height="2" fill="#25d8d8" fill-opacity="0.5"></rect><rect x="162" y="351" width="2" height="2" fill="#f0e0d0" fill-opacity="0.5"></rect><rect x="786" y="326" width="2" height="2" fill="#9a7ad6" fill-opacity="0.5"></rect><rect x="297" y="305" width="2" height="2" fill="#25d8d8" fill-opacity="0.5"></rect><rect x="165" y="323" width="2" height="2" fill="#f0e0d0" fill-opacity="0.5"></rect><rect x="171" y="335" width="2" height="2" fill="#ff6a6a" fill-opacity="0.5"></rect><rect x="170" y="349" width="2" height="2" fill="#9a7ad6" fill-opacity="0.5"></rect><rect x="306" y="309" width="2" height="2" fill="#ff8a3d" fill-opacity="0.5"></rect><rect x="258" y="305" width="2" height="2" fill="#25d8d8" fill-opacity="0.5"></rect><rect x="143" y="333" width="2" height="2" fill="#ff6a6a" fill-opacity="0.5"></rect><rect x="120" y="330" width="2" height="2" fill="#25d8d8" fill-opacity="0.5"></rect><rect x="196" y="341" width="2" height="2" fill="#ff6a6a" fill-opacity="0.5"></rect><rect x="760" y="340" width="2" height="2" fill="#9a7ad6" fill-opacity="0.5"></rect><rect x="189" y="337" width="2" height="2" fill="#ff8a3d" fill-opacity="0.5"></rect><rect x="240" y="322" width="2" height="2" fill="#25d8d8" fill-opacity="0.5"></rect><rect x="12" y="339" width="2" height="2" fill="#f0e0d0" fill-opacity="0.5"></rect><rect x="212" y="320" width="2" height="2" fill="#ff6a6a" fill-opacity="0.5"></rect><rect x="212" y="303" width="2" height="2" fill="#ff8a3d" fill-opacity="0.5"></rect><rect x="899" y="357" width="2" height="2" fill="#25d8d8" fill-opacity="0.5"></rect><rect x="148" y="344" width="2" height="2" fill="#f0e0d0" fill-opacity="0.5"></rect><rect x="131" y="347" width="2" height="2" fill="#9a7ad6" fill-opacity="0.5"></rect><rect x="364" y="308" width="2" height="2" fill="#ff8a3d" fill-opacity="0.5"></rect><rect x="642" y="300" width="2" height="2" fill="#f0e0d0" fill-opacity="0.5"></rect><rect x="185" y="317" width="2" height="2" fill="#ff8a3d" fill-opacity="0.5"></rect><rect x="631" y="315" width="2" height="2" fill="#25d8d8" fill-opacity="0.5"></rect><rect x="190" y="332" width="2" height="2" fill="#9a7ad6" fill-opacity="0.5"></rect><rect x="266" y="300" width="2" height="2" fill="#ff8a3d" fill-opacity="0.5"></rect><rect x="736" y="308" width="2" height="2" fill="#25d8d8" fill-opacity="0.5"></rect><rect x="122" y="335" width="2" height="2" fill="#9a7ad6" fill-opacity="0.5"></rect><rect x="85" y="344" width="2" height="2" fill="#ff8a3d" fill-opacity="0.5"></rect><rect x="247" y="303" width="2" height="2" fill="#25d8d8" fill-opacity="0.5"></rect><rect x="230" y="307" width="2" height="2" fill="#f0e0d0" fill-opacity="0.5"></rect><rect x="782" y="335" width="2" height="2" fill="#ff6a6a" fill-opacity="0.5"></rect><rect x="104" y="324" width="2" height="2" fill="#9a7ad6" fill-opacity="0.5"></rect><rect x="135" y="338" width="2" height="2" fill="#ff8a3d" fill-opacity="0.5"></rect><rect x="569" y="307" width="2" height="2" fill="#f0e0d0" fill-opacity="0.5"></rect><rect x="892" y="351" width="2" height="2" fill="#ff6a6a" fill-opacity="0.5"></rect><rect x="733" y="317" width="2" height="2" fill="#9a7ad6" fill-opacity="0.5"></rect><rect x="157" y="345" width="2" height="2" fill="#ff8a3d" fill-opacity="0.5"></rect><rect x="113" y="327" width="2" height="2" fill="#25d8d8" fill-opacity="0.5"></rect><rect x="218" y="307" width="2" height="2" fill="#f0e0d0" fill-opacity="0.5"></rect><rect x="172" y="326" width="2" height="2" fill="#ff6a6a" fill-opacity="0.5"></rect><rect x="765" y="342" width="2" height="2" fill="#9a7ad6" fill-opacity="0.5"></rect><rect x="919" y="330" width="2" height="2" fill="#ff8a3d" fill-opacity="0.5"></rect><rect x="218" y="315" width="2" height="2" fill="#ff6a6a" fill-opacity="0.5"></rect><rect x="944" y="345" width="2" height="2" fill="#25d8d8" fill-opacity="0.5"></rect><rect x="105" y="353" width="2" height="2" fill="#f0e0d0" fill-opacity="0.5"></rect><rect x="788" y="357" width="2" height="2" fill="#9a7ad6" fill-opacity="0.5"></rect><rect x="325" y="311" width="2" height="2" fill="#ff8a3d" fill-opacity="0.5"></rect><rect x="827" y="337" width="2" height="2" fill="#9a7ad6" fill-opacity="0.5"></rect><rect x="834" y="348" width="2" height="2" fill="#ff8a3d" fill-opacity="0.5"></rect><rect x="68" y="325" width="2" height="2" fill="#25d8d8" fill-opacity="0.5"></rect><rect x="122" y="318" width="2" height="2" fill="#ff6a6a" fill-opacity="0.5"></rect><rect x="145" y="314" width="2" height="2" fill="#9a7ad6" fill-opacity="0.5"></rect><rect x="793" y="308" width="2" height="2" fill="#ff8a3d" fill-opacity="0.5"></rect><rect x="966" y="357" width="2" height="2" fill="#f0e0d0" fill-opacity="0.5"></rect><rect x="510" y="302" width="2" height="2" fill="#ff6a6a" fill-opacity="0.5"></rect><rect x="900" y="346" width="2" height="2" fill="#9a7ad6" fill-opacity="0.5"></rect><rect x="770" y="351" width="2" height="2" fill="#ff8a3d" fill-opacity="0.5"></rect><rect x="833" y="355" width="2" height="2" fill="#f0e0d0" fill-opacity="0.5"></rect><rect x="169" y="336" width="2" height="2" fill="#ff6a6a" fill-opacity="0.5"></rect><rect x="902" y="327" width="2" height="2" fill="#9a7ad6" fill-opacity="0.5"></rect><rect x="780" y="332" width="2" height="2" fill="#25d8d8" fill-opacity="0.5"></rect><rect x="222" y="321" width="2" height="2" fill="#f0e0d0" fill-opacity="0.5"></rect><rect x="839" y="354" width="2" height="2" fill="#ff6a6a" fill-opacity="0.5"></rect><rect x="580" y="300" width="2" height="2" fill="#ff8a3d" fill-opacity="0.5"></rect><rect x="750" y="320" width="2" height="2" fill="#25d8d8" fill-opacity="0.5"></rect><rect x="292" y="301" width="2" height="2" fill="#f0e0d0" fill-opacity="0.5"></rect><rect x="827" y="354" width="2" height="2" fill="#9a7ad6" fill-opacity="0.5"></rect><rect x="239" y="319" width="2" height="2" fill="#25d8d8" fill-opacity="0.5"></rect><rect x="177" y="353" width="2" height="2" fill="#f0e0d0" fill-opacity="0.5"></rect><rect x="916" y="346" width="2" height="2" fill="#9a7ad6" fill-opacity="0.5"></rect><rect x="62" y="330" width="2" height="2" fill="#ff8a3d" fill-opacity="0.5"></rect><rect x="747" y="322" width="2" height="2" fill="#f0e0d0" fill-opacity="0.5"></rect><rect x="284" y="317" width="2" height="2" fill="#ff6a6a" fill-opacity="0.5"></rect><rect x="879" y="331" width="2" height="2" fill="#9a7ad6" fill-opacity="0.5"></rect><rect x="390" y="308" width="2" height="2" fill="#ff8a3d" fill-opacity="0.5"></rect><rect x="863" y="325" width="2" height="2" fill="#25d8d8" fill-opacity="0.5"></rect><rect x="89" y="337" width="2" height="2" fill="#f0e0d0" fill-opacity="0.5"></rect><rect x="695" y="315" width="2" height="2" fill="#ff8a3d" fill-opacity="0.5"></rect><rect x="774" y="355" width="2" height="2" fill="#25d8d8" fill-opacity="0.5"></rect><rect x="955" y="352" width="2" height="2" fill="#ff6a6a" fill-opacity="0.5"></rect><rect x="759" y="318" width="2" height="2" fill="#9a7ad6" fill-opacity="0.5"></rect><rect x="739" y="303" width="2" height="2" fill="#25d8d8" fill-opacity="0.5"></rect><rect x="41" y="325" width="2" height="2" fill="#9a7ad6" fill-opacity="0.5"></rect><rect x="28" y="357" width="2" height="2" fill="#ff8a3d" fill-opacity="0.5"></rect><rect x="84" y="319" width="2" height="2" fill="#9a7ad6" fill-opacity="0.5"></rect><rect x="766" y="306" width="2" height="2" fill="#ff8a3d" fill-opacity="0.5"></rect><rect x="104" y="349" width="2" height="2" fill="#25d8d8" fill-opacity="0.5"></rect><rect x="809" y="345" width="2" height="2" fill="#ff6a6a" fill-opacity="0.5"></rect><rect x="962" y="345" width="2" height="2" fill="#ff8a3d" fill-opacity="0.5"></rect><rect x="757" y="317" width="2" height="2" fill="#25d8d8" fill-opacity="0.5"></rect><rect x="425" y="300" width="2" height="2" fill="#f0e0d0" fill-opacity="0.5"></rect><rect x="207" y="317" width="2" height="2" fill="#ff6a6a" fill-opacity="0.5"></rect><rect x="813" y="356" width="2" height="2" fill="#ff8a3d" fill-opacity="0.5"></rect><rect x="140" y="323" width="2" height="2" fill="#25d8d8" fill-opacity="0.5"></rect><rect x="16" y="350" width="2" height="2" fill="#9a7ad6" fill-opacity="0.5"></rect><rect x="749" y="316" width="2" height="2" fill="#ff8a3d" fill-opacity="0.5"></rect><rect x="80" y="344" width="2" height="2" fill="#25d8d8" fill-opacity="0.5"></rect><rect x="794" y="318" width="2" height="2" fill="#ff8a3d" fill-opacity="0.5"></rect><rect x="903" y="319" width="2" height="2" fill="#25d8d8" fill-opacity="0.5"></rect><rect x="135" y="336" width="2" height="2" fill="#f0e0d0" fill-opacity="0.5"></rect><rect x="882" y="328" width="2" height="2" fill="#ff6a6a" fill-opacity="0.5"></rect><rect x="708" y="319" width="2" height="2" fill="#9a7ad6" fill-opacity="0.5"></rect><rect x="225" y="321" width="2" height="2" fill="#25d8d8" fill-opacity="0.5"></rect><rect x="146" y="330" width="2" height="2" fill="#f0e0d0" fill-opacity="0.5"></rect><rect x="409" y="304" width="2" height="2" fill="#9a7ad6" fill-opacity="0.5"></rect><rect x="775" y="317" width="2" height="2" fill="#ff8a3d" fill-opacity="0.5"></rect><rect x="820" y="311" width="2" height="2" fill="#25d8d8" fill-opacity="0.5"></rect><rect x="170" y="323" width="2" height="2" fill="#f0e0d0" fill-opacity="0.5"></rect><rect x="355" y="309" width="2" height="2" fill="#9a7ad6" fill-opacity="0.5"></rect><rect x="88" y="336" width="2" height="2" fill="#f0e0d0" fill-opacity="0.5"></rect><rect x="338" y="305" width="2" height="2" fill="#ff6a6a" fill-opacity="0.5"></rect><rect x="63" y="327" width="2" height="2" fill="#9a7ad6" fill-opacity="0.5"></rect><rect x="926" y="353" width="2" height="2" fill="#ff8a3d" fill-opacity="0.5"></rect><rect x="102" y="330" width="2" height="2" fill="#25d8d8" fill-opacity="0.5"></rect><rect x="616" y="302" width="2" height="2" fill="#f0e0d0" fill-opacity="0.5"></rect><rect x="618" y="311" width="2" height="2" fill="#ff8a3d" fill-opacity="0.5"></rect><rect x="252" y="315" width="2" height="2" fill="#25d8d8" fill-opacity="0.5"></rect><rect x="970" y="359" width="2" height="2" fill="#f0e0d0" fill-opacity="0.5"></rect><rect x="100" y="342" width="2" height="2" fill="#9a7ad6" fill-opacity="0.5"></rect><rect x="809" y="324" width="2" height="2" fill="#25d8d8" fill-opacity="0.5"></rect><rect x="296" y="302" width="2" height="2" fill="#f0e0d0" fill-opacity="0.5"></rect><rect x="90" y="329" width="2" height="2" fill="#ff6a6a" fill-opacity="0.5"></rect><rect x="889" y="352" width="2" height="2" fill="#9a7ad6" fill-opacity="0.5"></rect><rect x="218" y="306" width="2" height="2" fill="#ff8a3d" fill-opacity="0.5"></rect><rect x="169" y="331" width="2" height="2" fill="#25d8d8" fill-opacity="0.5"></rect><rect x="222" y="317" width="2" height="2" fill="#ff6a6a" fill-opacity="0.5"></rect></g><rect x="147" y="150" width="6" height="160" fill="#160f22"></rect><rect x="124" y="140" width="52" height="12" fill="#1c1430"></rect><rect x="128" y="141" width="9" height="9" fill="#fff7d2"></rect><rect x="129" y="142" width="6" height="6" fill="#fffef0"></rect><rect x="141" y="141" width="9" height="9" fill="#fff7d2"></rect><rect x="142" y="142" width="6" height="6" fill="#fffef0"></rect><rect x="154" y="141" width="9" height="9" fill="#fff7d2"></rect><rect x="155" y="142" width="6" height="6" fill="#fffef0"></rect><rect x="167" y="141" width="9" height="9" fill="#fff7d2"></rect><rect x="168" y="142" width="6" height="6" fill="#fffef0"></rect><ellipse cx="150" cy="146" rx="60" ry="40" fill="url(#sunhaze)"></ellipse><rect x="807" y="150" width="6" height="160" fill="#160f22"></rect><rect x="784" y="140" width="52" height="12" fill="#1c1430"></rect><rect x="788" y="141" width="9" height="9" fill="#fff7d2"></rect><rect x="789" y="142" width="6" height="6" fill="#fffef0"></rect><rect x="801" y="141" width="9" height="9" fill="#fff7d2"></rect><rect x="802" y="142" width="6" height="6" fill="#fffef0"></rect><rect x="814" y="141" width="9" height="9" fill="#fff7d2"></rect><rect x="815" y="142" width="6" height="6" fill="#fffef0"></rect><rect x="827" y="141" width="9" height="9" fill="#fff7d2"></rect><rect x="828" y="142" width="6" height="6" fill="#fffef0"></rect><ellipse cx="810" cy="146" rx="60" ry="40" fill="url(#sunhaze)"></ellipse><rect x="0" y="300" width="960" height="300" fill="#15240f"></rect><g clip-path="url(#field)"><polygon points="300,322 660,322 872,556 88,556" fill="url(#grass)"></polygon><polygon points="300,322 330,322 153,556 88,556" fill="#247f31" fill-opacity="0.55"></polygon><polygon points="360,322 390,322 284,556 219,556" fill="#247f31" fill-opacity="0.55"></polygon><polygon points="420,322 450,322 415,556 349,556" fill="#247f31" fill-opacity="0.55"></polygon><polygon points="480,322 510,322 545,556 480,556" fill="#247f31" fill-opacity="0.55"></polygon><polygon points="540,322 570,322 676,556 611,556" fill="#247f31" fill-opacity="0.55"></polygon><polygon points="600,322 630,322 807,556 741,556" fill="#247f31" fill-opacity="0.55"></polygon></g><polygon points="300,322 660,322 872,556 88,556" fill="url(#pitchglow)" clip-path="url(#field)"></polygon><polygon points="318,330 642,330 846,548 114,548" fill="none" stroke="#eafff0" stroke-opacity="0.82" stroke-width="3"></polygon><line x1="480" y1="330" x2="480" y2="548" stroke="#eafff0" stroke-opacity="0.82" stroke-width="3"></line><ellipse cx="480" cy="439" rx="86" ry="34" fill="none" stroke="#eafff0" stroke-opacity="0.82" stroke-width="3"></ellipse><rect x="476" y="435" width="8" height="8" fill="#eafff0" fill-opacity="0.82"></rect><polygon points="318,330 360,330 372,372 318,372" fill="none" stroke="#eafff0" stroke-opacity="0.82" stroke-width="2"></polygon><polygon points="600,330 642,330 642,372 588,372" fill="none" stroke="#eafff0" stroke-opacity="0.82" stroke-width="2"></polygon><polygon points="114,548 220,548 250,500 150,500" fill="none" stroke="#eafff0" stroke-opacity="0.82" stroke-width="2"></polygon><polygon points="740,548 846,548 810,500 710,500" fill="none" stroke="#eafff0" stroke-opacity="0.82" stroke-width="2"></polygon><circle cx="480" cy="360" r="6" fill="#ff7a1f" fill-opacity="0.9"></circle><circle cx="480" cy="360" r="11" fill="none" stroke="#ff7a1f" stroke-opacity="0.5" stroke-width="2"></circle><circle cx="400" cy="400" r="6" fill="#25d8d8" fill-opacity="0.9"></circle><circle cx="400" cy="400" r="11" fill="none" stroke="#25d8d8" stroke-opacity="0.5" stroke-width="2"></circle><circle cx="560" cy="400" r="6" fill="#ff7a1f" fill-opacity="0.9"></circle><circle cx="560" cy="400" r="11" fill="none" stroke="#ff7a1f" stroke-opacity="0.5" stroke-width="2"></circle><circle cx="320" cy="470" r="6" fill="#25d8d8" fill-opacity="0.9"></circle><circle cx="320" cy="470" r="11" fill="none" stroke="#25d8d8" stroke-opacity="0.5" stroke-width="2"></circle><circle cx="640" cy="470" r="6" fill="#ff7a1f" fill-opacity="0.9"></circle><circle cx="640" cy="470" r="11" fill="none" stroke="#ff7a1f" stroke-opacity="0.5" stroke-width="2"></circle><circle cx="480" cy="520" r="6" fill="#25d8d8" fill-opacity="0.9"></circle><circle cx="480" cy="520" r="11" fill="none" stroke="#25d8d8" stroke-opacity="0.5" stroke-width="2"></circle><circle cx="230" cy="510" r="6" fill="#ff7a1f" fill-opacity="0.9"></circle><circle cx="230" cy="510" r="11" fill="none" stroke="#ff7a1f" stroke-opacity="0.5" stroke-width="2"></circle><circle cx="730" cy="510" r="6" fill="#25d8d8" fill-opacity="0.9"></circle><circle cx="730" cy="510" r="11" fill="none" stroke="#25d8d8" stroke-opacity="0.5" stroke-width="2"></circle><rect x="70" y="400" width="26" height="70" fill="#0c1408" fill-opacity="0.5"></rect><rect x="70" y="400" width="26" height="70" fill="none" stroke="#eef3f8" stroke-width="3"></rect><line x1="96" y1="414" x2="70" y2="414" stroke="#cfe0ef" stroke-opacity="0.4" stroke-width="1"></line><line x1="96" y1="428" x2="70" y2="428" stroke="#cfe0ef" stroke-opacity="0.4" stroke-width="1"></line><line x1="96" y1="442" x2="70" y2="442" stroke="#cfe0ef" stroke-opacity="0.4" stroke-width="1"></line><line x1="96" y1="456" x2="70" y2="456" stroke="#cfe0ef" stroke-opacity="0.4" stroke-width="1"></line><rect x="864" y="400" width="26" height="70" fill="#0c1408" fill-opacity="0.5"></rect><rect x="864" y="400" width="26" height="70" fill="none" stroke="#eef3f8" stroke-width="3"></rect><line x1="864" y1="414" x2="890" y2="414" stroke="#cfe0ef" stroke-opacity="0.4" stroke-width="1"></line><line x1="864" y1="428" x2="890" y2="428" stroke="#cfe0ef" stroke-opacity="0.4" stroke-width="1"></line><line x1="864" y1="442" x2="890" y2="442" stroke="#cfe0ef" stroke-opacity="0.4" stroke-width="1"></line><line x1="864" y1="456" x2="890" y2="456" stroke="#cfe0ef" stroke-opacity="0.4" stroke-width="1"></line><rect x="0" y="300" width="960" height="3" fill="#0e1c0a" fill-opacity="0.6"></rect><rect width="960" height="600" fill="url(#vig)"></rect></svg>