<svg xmlns="http://www.w3.org/2000/svg" viewBox="0 0 230 400" preserveAspectRatio="xMaxYMax meet" shape-rendering="crispEdges"><defs><linearGradient id="glass" x1="0" y1="0" x2="0" y2="1">
 <stop offset="0" stop-color="#3fd8e0" stop-opacity="0.30"></stop>
 <stop offset="1" stop-color="#1c6f8f" stop-opacity="0.45"></stop></linearGradient></defs><polygon points="0,400 0,150 70,120 96,400" fill="#141b2a"></polygon><polygon points="8,392 8,158 66,130 86,392" fill="url(#glass)"></polygon><line x1="8" y1="158" x2="8" y2="392" stroke="#0e2533" stroke-opacity="0.6" stroke-width="2"></line><line x1="27" y1="149" x2="34" y2="392" stroke="#0e2533" stroke-opacity="0.6" stroke-width="2"></line><line x1="47" y1="139" x2="60" y2="392" stroke="#0e2533" stroke-opacity="0.6" stroke-width="2"></line><line x1="66" y1="130" x2="86" y2="392" stroke="#0e2533" stroke-opacity="0.6" stroke-width="2"></line><rect x="12" y="170" width="60" height="4" fill="#bfffff" fill-opacity="0.1"></rect><rect x="12" y="206" width="58" height="4" fill="#bfffff" fill-opacity="0.1"></rect><rect x="12" y="242" width="56" height="4" fill="#bfffff" fill-opacity="0.1"></rect><rect x="12" y="278" width="54" height="4" fill="#bfffff" fill-opacity="0.1"></rect><rect x="12" y="314" width="52" height="4" fill="#bfffff" fill-opacity="0.1"></rect><rect x="12" y="350" width="50" height="4" fill="#bfffff" fill-opacity="0.1"></rect><polygon points="2,160 74,128 80,140 6,172" fill="#25d8d8"></polygon><polygon points="2,160 74,128 78,134 4,166" fill="#9af6ff"></polygon><rect x="0" y="150" width="90" height="4" fill="#25d8d8" fill-opacity="0.35"></rect><polygon points="6,392 86,392 80,372 12,372" fill="#ff6a1f" fill-opacity="0.85"></polygon><circle cx="48" cy="384" r="7" fill="#ff7a1f"></circle><circle cx="48" cy="384" r="13" fill="none" stroke="#ff7a1f" stroke-opacity="0.4" stroke-width="2"></circle><rect x="0" y="300" width="7" height="92" fill="#eef3f8"></rect></svg>