<svg xmlns="http://www.w3.org/2000/svg" viewBox="0 0 960 540" width="960" height="540" shape-rendering="crispEdges">
  <defs>
    <pattern id="brickA" x="0" y="0" width="32" height="16" patternUnits="userSpaceOnUse">
      <rect width="32" height="16" fill="#302018"/>
      <rect x="1" y="1" width="28" height="13" fill="#604840"/>
    </pattern>
    <pattern id="brickB" x="16" y="0" width="32" height="16" patternUnits="userSpaceOnUse">
      <rect width="32" height="16" fill="#302018"/>
      <rect x="1" y="1" width="28" height="13" fill="#503830"/>
    </pattern>
    <radialGradient id="archGlow" cx="50%" cy="100%" r="70%" gradientUnits="objectBoundingBox">
      <stop offset="0%" stop-color="#f0c040" stop-opacity="0.55"/>
      <stop offset="45%" stop-color="#f0a020" stop-opacity="0.15"/>
      <stop offset="100%" stop-color="#f0a020" stop-opacity="0"/>
    </radialGradient>
    <radialGradient id="torchGlowL" cx="50%" cy="50%" r="50%" gradientUnits="objectBoundingBox">
      <stop offset="0%" stop-color="#ffaa22" stop-opacity="0.65"/>
      <stop offset="100%" stop-color="#ffaa22" stop-opacity="0"/>
    </radialGradient>
    <radialGradient id="torchGlowR" cx="50%" cy="50%" r="50%" gradientUnits="objectBoundingBox">
      <stop offset="0%" stop-color="#ffaa22" stop-opacity="0.65"/>
      <stop offset="100%" stop-color="#ffaa22" stop-opacity="0"/>
    </radialGradient>
    <linearGradient id="skyGrad" x1="0" y1="0" x2="0" y2="1">
      <stop offset="0%" stop-color="#030614"/>
      <stop offset="100%" stop-color="#0c1830"/>
    </linearGradient>
  </defs>

  <!-- Night sky -->
  <rect width="960" height="540" fill="url(#skyGrad)"/>

  <!-- Stars small -->
  <rect x="42"  y="18"  width="2" height="2" fill="#f0f0c0"/>
  <rect x="120" y="35"  width="2" height="2" fill="#d8d8b0"/>
  <rect x="195" y="12"  width="2" height="2" fill="#f0f0c0"/>
  <rect x="280" y="48"  width="2" height="2" fill="#e8e8c0"/>
  <rect x="340" y="22"  width="2" height="2" fill="#d0d0b0"/>
  <rect x="510" y="15"  width="2" height="2" fill="#e0e0b8"/>
  <rect x="590" y="40"  width="2" height="2" fill="#f0f0c0"/>
  <rect x="660" y="10"  width="2" height="2" fill="#d8d8b0"/>
  <rect x="740" y="55"  width="2" height="2" fill="#f0f0c0"/>
  <rect x="820" y="28"  width="2" height="2" fill="#e8e8c0"/>
  <rect x="900" y="44"  width="2" height="2" fill="#f0f0c0"/>
  <rect x="65"  y="80"  width="2" height="2" fill="#d8d8b0"/>
  <rect x="155" y="95"  width="2" height="2" fill="#f0f0c0"/>
  <rect x="230" y="72"  width="2" height="2" fill="#e0e0b8"/>
  <rect x="315" y="100" width="2" height="2" fill="#f0f0c0"/>
  <rect x="450" y="88"  width="2" height="2" fill="#d8d8b0"/>
  <rect x="560" y="70"  width="2" height="2" fill="#f0f0c0"/>
  <rect x="630" y="110" width="2" height="2" fill="#e8e8c0"/>
  <rect x="710" y="82"  width="2" height="2" fill="#f0f0c0"/>
  <rect x="790" y="105" width="2" height="2" fill="#d0d0b0"/>
  <rect x="870" y="78"  width="2" height="2" fill="#f0f0c0"/>
  <rect x="185" y="120" width="2" height="2" fill="#f0f0c0"/>
  <rect x="370" y="140" width="2" height="2" fill="#e8e8c0"/>
  <rect x="488" y="125" width="2" height="2" fill="#f0f0c0"/>
  <rect x="680" y="130" width="2" height="2" fill="#f0f0c0"/>
  <rect x="845" y="118" width="2" height="2" fill="#f0f0c0"/>
  <!-- Stars bright -->
  <rect x="78"  y="55"  width="4" height="4" fill="#ffffff"/>
  <rect x="480" y="30"  width="4" height="4" fill="#fffff0"/>
  <rect x="720" y="18"  width="4" height="4" fill="#ffffff"/>
  <rect x="260" y="90"  width="3" height="3" fill="#fffff0"/>
  <rect x="880" y="60"  width="3" height="3" fill="#ffffff"/>

  <!-- Ground band — brick rows alternating -->
  <rect y="324" width="960" height="216" fill="url(#brickA)"/>
  <rect y="340" width="960" height="16" fill="url(#brickB)"/>
  <rect y="372" width="960" height="16" fill="url(#brickB)"/>
  <rect y="404" width="960" height="16" fill="url(#brickB)"/>
  <rect y="436" width="960" height="16" fill="url(#brickB)"/>
  <rect y="468" width="960" height="16" fill="url(#brickB)"/>
  <rect y="500" width="960" height="16" fill="url(#brickB)"/>
  <rect y="532" width="960" height="16" fill="url(#brickB)"/>

  <!-- Left stadium pillar -->
  <rect x="80" y="160" width="128" height="380" fill="#706050"/>
  <rect x="80" y="160" width="10" height="380" fill="#807060"/>
  <!-- Left crenellations -->
  <rect x="80"  y="144" width="20" height="24" fill="#706050"/>
  <rect x="112" y="144" width="20" height="24" fill="#706050"/>
  <rect x="144" y="144" width="20" height="24" fill="#706050"/>
  <rect x="176" y="144" width="20" height="24" fill="#706050"/>

  <!-- Right stadium pillar -->
  <rect x="752" y="160" width="128" height="380" fill="#706050"/>
  <rect x="870" y="160" width="10" height="380" fill="#807060"/>
  <!-- Right crenellations -->
  <rect x="756" y="144" width="20" height="24" fill="#706050"/>
  <rect x="788" y="144" width="20" height="24" fill="#706050"/>
  <rect x="820" y="144" width="20" height="24" fill="#706050"/>
  <rect x="852" y="144" width="20" height="24" fill="#706050"/>

  <!-- Arch glow -->
  <rect x="200" y="200" width="560" height="340" fill="url(#archGlow)"/>

  <!-- Central arch tunnel (dark) -->
  <rect x="240" y="200" width="480" height="340" fill="#020308"/>
  <!-- Arch top curved approximation -->
  <rect x="280" y="176" width="400" height="32" fill="#020308"/>
  <rect x="260" y="192" width="440" height="16" fill="#020308"/>
  <!-- Arch trim -->
  <rect x="240" y="192" width="480" height="8" fill="#504030"/>
  <rect x="240" y="192" width="8"   height="348" fill="#504030"/>
  <rect x="712" y="192" width="8"   height="348" fill="#504030"/>

  <!-- Torch glow left -->
  <rect x="188" y="252" width="80" height="80" fill="url(#torchGlowL)"/>
  <!-- Torch left stem + flame -->
  <rect x="222" y="282" width="8" height="20" fill="#6b3a2a"/>
  <rect x="220" y="264" width="12" height="18" fill="#ff8c00"/>
  <rect x="222" y="260" width="8"  height="8"  fill="#ffcc00"/>

  <!-- Torch glow right -->
  <rect x="692" y="252" width="80" height="80" fill="url(#torchGlowR)"/>
  <!-- Torch right stem + flame -->
  <rect x="730" y="282" width="8" height="20" fill="#6b3a2a"/>
  <rect x="728" y="264" width="12" height="18" fill="#ff8c00"/>
  <rect x="730" y="260" width="8"  height="8"  fill="#ffcc00"/>

  <!-- Ground line -->
  <rect y="320" width="960" height="4" fill="#201408"/>

  <!-- Edge vignette (simple rects) -->
  <rect width="80" height="540" fill="#000000" fill-opacity="0.4"/>
  <rect x="880" width="80" height="540" fill="#000000" fill-opacity="0.4"/>
  <rect width="960" height="40" fill="#000000" fill-opacity="0.3"/>
  <rect y="500" width="960" height="40" fill="#000000" fill-opacity="0.3"/>
</svg>
