<svg xmlns="http://www.w3.org/2000/svg" viewBox="0 0 960 600" preserveAspectRatio="xMidYMid slice" shape-rendering="crispEdges"><defs>
 <radialGradient id="bloom" cx="0.5" cy="0.6" r="0.72"><stop offset="0" stop-color="#fff3d0" stop-opacity="0.8"></stop><stop offset="0.5" stop-color="#ffc24d" stop-opacity="0.34"></stop><stop offset="1" stop-color="#ff7a1f" stop-opacity="0"></stop></radialGradient>
 <linearGradient id="wallL" x1="0" y1="0" x2="1" y2="0"><stop offset="0" stop-color="#150e1e"></stop><stop offset="1" stop-color="#3a2438"></stop></linearGradient>
 <linearGradient id="wallR" x1="0" y1="0" x2="1" y2="0"><stop offset="0" stop-color="#3a2438"></stop><stop offset="1" stop-color="#150e1e"></stop></linearGradient>
 <linearGradient id="ceil" x1="0" y1="0" x2="0" y2="1"><stop offset="0" stop-color="#0e0814"></stop><stop offset="1" stop-color="#2a1c30"></stop></linearGradient>
 <linearGradient id="floor" x1="0" y1="1" x2="0" y2="0"><stop offset="0" stop-color="#1c1326"></stop><stop offset="1" stop-color="#3a2740"></stop></linearGradient>
 <linearGradient id="sky" x1="0" y1="0" x2="0" y2="1"><stop offset="0" stop-color="#7a1f9e"></stop><stop offset="0.5" stop-color="#dd2f59"></stop><stop offset="1" stop-color="#ff7d36"></stop></linearGradient>
 <radialGradient id="vig" cx="0.5" cy="0.5" r="0.75"><stop offset="0.45" stop-color="#000" stop-opacity="0"></stop><stop offset="1" stop-color="#0a0510" stop-opacity="0.78"></stop></radialGradient>
</defs><polygon points="0,0 960,0 556,250 404,250" fill="url(#ceil)"></polygon><polygon points="0,600 960,600 556,430 404,430" fill="url(#floor)"></polygon><polygon points="0,0 404,250 404,430 0,600" fill="url(#wallL)"></polygon><polygon points="960,0 556,250 556,430 960,600" fill="url(#wallR)"></polygon><polygon points="404,250 404,430 404,430" fill="#000" fill-opacity="0"></polygon><line x1="65" y1="40" x2="895" y2="40" stroke="#4a2f48" stroke-width="2" stroke-opacity="0.452"></line><line x1="65" y1="573" x2="895" y2="573" stroke="#4a2f48" stroke-width="2" stroke-opacity="0.452"></line><line x1="65" y1="40" x2="65" y2="573" stroke="#4a2f48" stroke-width="2" stroke-opacity="0.452"></line><line x1="895" y1="40" x2="895" y2="573" stroke="#4a2f48" stroke-width="2" stroke-opacity="0.452"></line><line x1="129" y1="80" x2="831" y2="80" stroke="#4a2f48" stroke-width="2" stroke-opacity="0.404"></line><line x1="129" y1="546" x2="831" y2="546" stroke="#4a2f48" stroke-width="2" stroke-opacity="0.404"></line><line x1="129" y1="80" x2="129" y2="546" stroke="#4a2f48" stroke-width="2" stroke-opacity="0.404"></line><line x1="831" y1="80" x2="831" y2="546" stroke="#4a2f48" stroke-width="2" stroke-opacity="0.404"></line><line x1="194" y1="120" x2="766" y2="120" stroke="#4a2f48" stroke-width="2" stroke-opacity="0.356"></line><line x1="194" y1="518" x2="766" y2="518" stroke="#4a2f48" stroke-width="2" stroke-opacity="0.356"></line><line x1="194" y1="120" x2="194" y2="518" stroke="#4a2f48" stroke-width="2" stroke-opacity="0.356"></line><line x1="766" y1="120" x2="766" y2="518" stroke="#4a2f48" stroke-width="2" stroke-opacity="0.356"></line><line x1="259" y1="160" x2="701" y2="160" stroke="#4a2f48" stroke-width="2" stroke-opacity="0.308"></line><line x1="259" y1="491" x2="701" y2="491" stroke="#4a2f48" stroke-width="2" stroke-opacity="0.308"></line><line x1="259" y1="160" x2="259" y2="491" stroke="#4a2f48" stroke-width="2" stroke-opacity="0.308"></line><line x1="701" y1="160" x2="701" y2="491" stroke="#4a2f48" stroke-width="2" stroke-opacity="0.308"></line><line x1="315" y1="195" x2="645" y2="195" stroke="#4a2f48" stroke-width="2" stroke-opacity="0.266"></line><line x1="315" y1="467" x2="645" y2="467" stroke="#4a2f48" stroke-width="2" stroke-opacity="0.266"></line><line x1="315" y1="195" x2="315" y2="467" stroke="#4a2f48" stroke-width="2" stroke-opacity="0.266"></line><line x1="645" y1="195" x2="645" y2="467" stroke="#4a2f48" stroke-width="2" stroke-opacity="0.266"></line><line x1="360" y1="223" x2="600" y2="223" stroke="#4a2f48" stroke-width="2" stroke-opacity="0.23299999999999998"></line><line x1="360" y1="449" x2="600" y2="449" stroke="#4a2f48" stroke-width="2" stroke-opacity="0.23299999999999998"></line><line x1="360" y1="223" x2="360" y2="449" stroke="#4a2f48" stroke-width="2" stroke-opacity="0.23299999999999998"></line><line x1="600" y1="223" x2="600" y2="449" stroke="#4a2f48" stroke-width="2" stroke-opacity="0.23299999999999998"></line><line x1="0" y1="150" x2="404" y2="295" stroke="#4a2f48" stroke-width="2" stroke-opacity="0.4"></line><line x1="960" y1="150" x2="556" y2="295" stroke="#4a2f48" stroke-width="2" stroke-opacity="0.4"></line><line x1="240" y1="0" x2="442" y2="250" stroke="#3a2740" stroke-width="2" stroke-opacity="0.35"></line><line x1="240" y1="600" x2="442" y2="430" stroke="#4a3550" stroke-width="2" stroke-opacity="0.4"></line><line x1="0" y1="300" x2="404" y2="340" stroke="#4a2f48" stroke-width="2" stroke-opacity="0.4"></line><line x1="960" y1="300" x2="556" y2="340" stroke="#4a2f48" stroke-width="2" stroke-opacity="0.4"></line><line x1="480" y1="0" x2="480" y2="250" stroke="#3a2740" stroke-width="2" stroke-opacity="0.35"></line><line x1="480" y1="600" x2="480" y2="430" stroke="#4a3550" stroke-width="2" stroke-opacity="0.4"></line><line x1="0" y1="450" x2="404" y2="385" stroke="#4a2f48" stroke-width="2" stroke-opacity="0.4"></line><line x1="960" y1="450" x2="556" y2="385" stroke="#4a2f48" stroke-width="2" stroke-opacity="0.4"></line><line x1="720" y1="0" x2="518" y2="250" stroke="#3a2740" stroke-width="2" stroke-opacity="0.35"></line><line x1="720" y1="600" x2="518" y2="430" stroke="#4a3550" stroke-width="2" stroke-opacity="0.4"></line><polygon points="430,600 530,600 546,430 414,430" fill="#8f1a1a"></polygon><polygon points="455,600 505,600 534,430 426,430" fill="#b71f1f"></polygon><line x1="480" y1="600" x2="480" y2="430" stroke="#e8392f" stroke-width="3" stroke-opacity="0.6"></line><polygon points="404,250 556,250 556,430 404,430" fill="#0a0510"></polygon><rect x="404" y="250" width="152" height="84" fill="url(#sky)"></rect><ellipse cx="480" cy="338" rx="86" ry="20" fill="#241432"></ellipse><rect x="404" y="334" width="152" height="96" fill="#247f31"></rect><rect x="404" y="334" width="152" height="4" fill="#3aa047"></rect><ellipse cx="480" cy="392" rx="26" ry="10" fill="none" stroke="#eafff0" stroke-width="2" stroke-opacity="0.7"></ellipse><line x1="480" y1="360" x2="480" y2="428" stroke="#eafff0" stroke-width="2" stroke-opacity="0.6"></line><ellipse cx="480" cy="344" rx="120" ry="96" fill="url(#bloom)"></ellipse><path d="M404 252 L404 280 A76 30 0 0 1 556 280 L556 252 Z" fill="#1c1226"></path><g fill="#0c0712" fill-opacity="0.9"><ellipse cx="480" cy="404" rx="9" ry="11"></ellipse><rect x="473" y="392" width="14" height="6"></rect></g><rect x="119.19999999999999" y="226.68" width="4" height="14" fill="#231a2c"></rect><ellipse cx="121.19999999999999" cy="224.68" rx="24" ry="30" fill="#ff8a2e" fill-opacity="0.28"></ellipse><polygon points="116.19999999999999,226.68 126.19999999999999,226.68 121.19999999999999,210.68" fill="#ff7a1f"></polygon><polygon points="117.86666666666666,226.68 124.53333333333332,226.68 121.19999999999999,217.68" fill="#ffce4d"></polygon><rect x="836.8" y="226.68" width="4" height="14" fill="#231a2c"></rect><ellipse cx="838.8" cy="224.68" rx="24" ry="30" fill="#ff8a2e" fill-opacity="0.28"></ellipse><polygon points="833.8,226.68 843.8,226.68 838.8,210.68" fill="#ff7a1f"></polygon><polygon points="835.4666666666666,226.68 842.1333333333333,226.68 838.8,217.68" fill="#ffce4d"></polygon><rect x="233.07999999999998" y="259.048" width="2.48" height="8.68" fill="#231a2c"></rect><ellipse cx="234.32" cy="257.048" rx="14.879999999999999" ry="18.6" fill="#ff8a2e" fill-opacity="0.28"></ellipse><polygon points="231.22,259.048 237.42,259.048 234.32,249.12800000000001" fill="#ff7a1f"></polygon><polygon points="232.25333333333333,259.048 236.38666666666666,259.048 234.32,253.468" fill="#ffce4d"></polygon><rect x="724.44" y="259.048" width="2.48" height="8.68" fill="#231a2c"></rect><ellipse cx="725.6800000000001" cy="257.048" rx="14.879999999999999" ry="18.6" fill="#ff8a2e" fill-opacity="0.28"></ellipse><polygon points="722.58,259.048 728.7800000000001,259.048 725.6800000000001,249.12800000000001" fill="#ff7a1f"></polygon><polygon points="723.6133333333333,259.048 727.7466666666668,259.048 725.6800000000001,253.468" fill="#ffce4d"></polygon><rect x="72.72" y="149.88" width="46" height="120" fill="#b71f1f"></rect><rect x="72.72" y="149.88" width="46" height="9.6" fill="#8f1414"></rect><rect x="86.52" y="197.88" width="18.400000000000002" height="21.599999999999998" fill="#f5d020"></rect><rect x="857.28" y="149.88" width="46" height="120" fill="#b71f1f"></rect><rect x="857.28" y="149.88" width="46" height="9.6" fill="#8f1414"></rect><rect x="871.0799999999999" y="197.88" width="18.400000000000002" height="21.599999999999998" fill="#f5d020"></rect><ellipse cx="480" cy="470" rx="220" ry="80" fill="#ffb04d" fill-opacity="0.16"></ellipse><rect width="960" height="600" fill="url(#vig)"></rect></svg>