<svg xmlns="http://www.w3.org/2000/svg" viewBox="0 0 16 20" shape-rendering="crispEdges"><rect x="5" y="0" width="4" height="1" fill="#2a2e38"></rect><rect x="4" y="1" width="1" height="1" fill="#2a2e38"></rect><rect x="5" y="1" width="4" height="1" fill="#3a2a18"></rect><rect x="9" y="1" width="1" height="1" fill="#2a2e38"></rect><rect x="3" y="2" width="1" height="1" fill="#14121f"></rect><rect x="4" y="2" width="6" height="1" fill="#3a2a18"></rect><rect x="10" y="2" width="1" height="1" fill="#14121f"></rect><rect x="2" y="3" width="1" height="1" fill="#4a505e"></rect><rect x="3" y="3" width="1" height="1" fill="#14121f"></rect><rect x="4" y="3" width="1" height="1" fill="#3a2a18"></rect><rect x="5" y="3" width="4" height="1" fill="#c98a5c"></rect><rect x="9" y="3" width="1" height="1" fill="#3a2a18"></rect><rect x="10" y="3" width="1" height="1" fill="#14121f"></rect><rect x="11" y="3" width="1" height="1" fill="#4a505e"></rect><rect x="2" y="4" width="1" height="1" fill="#4a505e"></rect><rect x="3" y="4" width="1" height="1" fill="#14121f"></rect><rect x="4" y="4" width="6" height="1" fill="#c98a5c"></rect><rect x="10" y="4" width="1" height="1" fill="#14121f"></rect><rect x="11" y="4" width="1" height="1" fill="#4a505e"></rect><rect x="2" y="5" width="1" height="1" fill="#4a505e"></rect><rect x="3" y="5" width="1" height="1" fill="#14121f"></rect><rect x="4" y="5" width="1" height="1" fill="#c98a5c"></rect><rect x="5" y="5" width="1" height="1" fill="#14121f"></rect><rect x="6" y="5" width="2" height="1" fill="#c98a5c"></rect><rect x="8" y="5" width="1" height="1" fill="#14121f"></rect><rect x="9" y="5" width="1" height="1" fill="#c98a5c"></rect><rect x="10" y="5" width="1" height="1" fill="#14121f"></rect><rect x="11" y="5" width="1" height="1" fill="#4a505e"></rect><rect x="2" y="6" width="1" height="1" fill="#25d8d8"></rect><rect x="4" y="6" width="1" height="1" fill="#14121f"></rect><rect x="5" y="6" width="6" height="1" fill="#c98a5c"></rect><rect x="11" y="6" width="1" height="1" fill="#14121f"></rect><rect x="2" y="7" width="2" height="1" fill="#25d8d8"></rect><rect x="5" y="7" width="1" height="1" fill="#14121f"></rect><rect x="6" y="7" width="4" height="1" fill="#c98a5c"></rect><rect x="10" y="7" width="1" height="1" fill="#14121f"></rect><rect x="4" y="8" width="6" height="1" fill="#14121f"></rect><rect x="3" y="9" width="1" height="1" fill="#14121f"></rect><rect x="4" y="9" width="6" height="1" fill="#2a2e38"></rect><rect x="10" y="9" width="1" height="1" fill="#14121f"></rect><rect x="2" y="10" width="1" height="1" fill="#14121f"></rect><rect x="3" y="10" width="2" height="1" fill="#2a2e38"></rect><rect x="5" y="10" width="1" height="1" fill="#25d8d8"></rect><rect x="6" y="10" width="2" height="1" fill="#ffffff"></rect><rect x="8" y="10" width="1" height="1" fill="#25d8d8"></rect><rect x="9" y="10" width="2" height="1" fill="#2a2e38"></rect><rect x="11" y="10" width="1" height="1" fill="#14121f"></rect><rect x="2" y="11" width="1" height="1" fill="#14121f"></rect><rect x="3" y="11" width="3" height="1" fill="#2a2e38"></rect><rect x="6" y="11" width="2" height="1" fill="#ffffff"></rect><rect x="8" y="11" width="3" height="1" fill="#2a2e38"></rect><rect x="11" y="11" width="1" height="1" fill="#14121f"></rect><rect x="2" y="12" width="1" height="1" fill="#14121f"></rect><rect x="3" y="12" width="8" height="1" fill="#2a2e38"></rect><rect x="11" y="12" width="1" height="1" fill="#14121f"></rect><rect x="2" y="13" width="1" height="1" fill="#14121f"></rect><rect x="3" y="13" width="8" height="1" fill="#2a2e38"></rect><rect x="11" y="13" width="1" height="1" fill="#14121f"></rect><rect x="3" y="14" width="1" height="1" fill="#14121f"></rect><rect x="4" y="14" width="6" height="1" fill="#2a2e38"></rect><rect x="10" y="14" width="1" height="1" fill="#14121f"></rect><rect x="2" y="15" width="1" height="1" fill="#14121f"></rect><rect x="3" y="15" width="8" height="1" fill="#2a2e38"></rect><rect x="11" y="15" width="1" height="1" fill="#14121f"></rect><rect x="2" y="16" width="1" height="1" fill="#14121f"></rect><rect x="3" y="16" width="8" height="1" fill="#2a2e38"></rect><rect x="11" y="16" width="1" height="1" fill="#14121f"></rect><rect x="2" y="17" width="1" height="1" fill="#14121f"></rect><rect x="3" y="17" width="2" height="1" fill="#2a2e38"></rect><rect x="5" y="17" width="4" height="1" fill="#14121f"></rect><rect x="9" y="17" width="2" height="1" fill="#2a2e38"></rect><rect x="11" y="17" width="1" height="1" fill="#14121f"></rect><rect x="2" y="18" width="1" height="1" fill="#14121f"></rect><rect x="3" y="18" width="2" height="1" fill="#2a2e38"></rect><rect x="6" y="18" width="2" height="1" fill="#14121f"></rect><rect x="9" y="18" width="2" height="1" fill="#2a2e38"></rect><rect x="11" y="18" width="1" height="1" fill="#14121f"></rect><rect x="1" y="19" width="4" height="1" fill="#14121f"></rect><rect x="6" y="19" width="2" height="1" fill="#14121f"></rect><rect x="9" y="19" width="4" height="1" fill="#14121f"></rect></svg>